<svg width="26" height="25" viewBox="0 0 26 25" fill="none" xmlns="http://www.w3.org/2000/svg">
<path d="M8.59998 4.10001H17.4V20.9H8.59998V4.10001Z" fill="#F2FAFF"/>
<path d="M17 4.50001V20.5H8.99995V4.50001H17ZM17.8 3.70001H8.19995V21.3H17.8V3.70001Z" fill="#A3B7CC"/>
<path d="M1.40002 4.10001H8.60002V20.9H1.40002V4.10001Z" fill="#99C99E"/>
<path d="M8.2 4.50001V20.5H1.8V4.50001H8.2ZM9 3.70001H1V21.3H9V3.70001Z" fill="#5E9C76"/>
<path d="M17.4 4.10001H24.6V20.9H17.4V4.10001Z" fill="#F78F8F"/>
<path d="M24.2 4.50001V20.5H17.8V4.50001H24.2ZM25 3.70001H17V21.3H25V3.70001Z" fill="#C74343"/>
<rect x="0.5" y="3.5" width="25" height="18" stroke="black"/>
</svg>
